<?xml version="1.0" encoding="utf-8"?>
<!-- Generator: Adobe Illustrator 26.5.0, SVG Export Plug-In . SVG Version: 6.00 Build 0)  -->
<svg version="1.2" baseProfile="tiny" id="Calque_1"
	 xmlns="http://www.w3.org/2000/svg" xmlns:xlink="http://www.w3.org/1999/xlink" x="0px" y="0px" width="629.9px" height="85.5px"
	 viewBox="0 0 629.9 85.5" overflow="visible" xml:space="preserve">
<g>
	<path fill="#FFFFFF" d="M2.1,80.9V4.3c0-0.7,0.5-1.1,1.1-1.1h6.2c0.7,0,1.1,0.5,1.1,1.1v76.6c0,0.7-0.5,1.1-1.1,1.1H3.2
		C2.5,82.1,2.1,81.6,2.1,80.9z"/>
	<path fill="#FFFFFF" d="M41,80.9V4.3c0-0.7,0.5-1.1,1.1-1.1h5.1c0.7,0,1.1,0.3,1.5,0.9l14.1,24c0.1,0.2,0.3,0.5,0.7,0.5
		s0.6-0.2,0.7-0.5l14.2-24c0.3-0.6,0.8-0.9,1.5-0.9h5.1c0.7,0,1.1,0.5,1.1,1.1v76.6c0,0.7-0.5,1.1-1.1,1.1h-5.6
		c-0.7,0-1.1-0.5-1.1-1.1V21.8c0-0.5-0.3-0.8-0.8-0.8c-0.5,0-0.7,0.3-0.8,0.6L64.5,42.1c-0.2,0.5-0.6,0.7-1,0.7
		c-0.5,0-0.8-0.2-1-0.7L50.4,21.6c-0.1-0.2-0.3-0.6-0.8-0.6s-0.8,0.3-0.8,0.8v59.1c0,0.7-0.5,1.1-1.1,1.1h-5.6
		C41.4,82.1,41,81.6,41,80.9z"/>
	<path fill="#FFFFFF" d="M110.7,80.8l10.8-76.5c0.1-0.8,0.6-1.1,1.2-1.1h15.1c0.7,0,1.1,0.3,1.2,1.1L150,80.8c0.1,0.7-0.3,1.2-1,1.2
		h-6.1c-0.7,0-1-0.2-1.1-1l-1.8-13c-0.1-0.9-0.6-1.1-1.2-1.1h-16.7c-0.7,0-1.1,0.2-1.2,1.1L119,81c-0.1,0.8-0.5,1-1.1,1h-6.1
		C111.1,82.1,110.6,81.5,110.7,80.8z M137.6,58.9c0.7,0,1-0.5,0.9-1.1l-6.1-45.1c-0.1-0.7-0.3-0.9-1-0.9h-2c-0.7,0-0.9,0.2-1,0.9
		l-6.2,45.1c-0.1,0.7,0.3,1.1,1,1.1H137.6z"/>
	<path fill="#FFFFFF" d="M173.6,63.5V22C173.6,10.4,182,2,193.6,2c11.3,0,19.5,7.9,20,18.9c0,0.7-0.5,1.1-1.1,1.1h-6.2
		c-0.7,0-1.1-0.3-1.1-1.1c-0.5-6.8-5.1-10.9-11.6-10.9c-6.9,0-11.5,4.6-11.5,12.1v41.5c0,7.3,4.6,11.9,11.5,11.9s11.8-4.6,11.8-11.9
		V51.6c0-0.7-0.5-1.1-1.1-1.1h-9.6c-0.7,0-1.1-0.5-1.1-1.1v-5.6c0-0.7,0.5-1.1,1.1-1.1h17.7c0.7,0,1.1,0.5,1.1,1.1v37.2
		c0,0.7-0.5,1.1-1.1,1.1h-5.5c-0.7,0-1.1-0.5-1.1-1.1v-2.6c0-0.5-0.3-0.7-0.7-0.7s-0.6,0.3-0.8,0.6c-2.6,3.3-6.2,5.2-11.8,5.2
		C180.8,83.4,173.6,75,173.6,63.5z"/>
	<path fill="#FFFFFF" d="M241.8,80.9V4.3c0-0.7,0.5-1.1,1.1-1.1h6.2c0.7,0,1.1,0.5,1.1,1.1v76.6c0,0.7-0.5,1.1-1.1,1.1h-6.2
		C242.2,82.1,241.8,81.6,241.8,80.9z"/>
	<path fill="#FFFFFF" d="M280.6,80.9V4.3c0-0.7,0.5-1.1,1.1-1.1h6.1c0.5,0,1,0.2,1.5,0.5L310.4,16c0.7,0.3,1.4,0.1,1.4-0.7v-11
		c0-0.7,0.5-1.1,1.1-1.1h5.7c0.7,0,1.1,0.5,1.1,1.1v76.6c0,0.7-0.5,1.1-1.1,1.1h-5.7c-0.7,0-1.1-0.5-1.1-1.1V27
		c0-0.5-0.1-0.9-0.6-1.1L290,13.5c-0.7-0.3-1.4,0-1.4,0.7v66.8c0,0.7-0.5,1.1-1.1,1.1h-5.7C281.1,82.1,280.6,81.6,280.6,80.9z"/>
	<path fill="#FFFFFF" d="M344.5,80.8l10.8-76.5c0.1-0.8,0.6-1.1,1.2-1.1h15.1c0.7,0,1.1,0.3,1.2,1.1l10.9,76.5
		c0.1,0.7-0.3,1.2-1,1.2h-6.1c-0.7,0-1-0.2-1.1-1l-1.8-13c-0.1-0.9-0.6-1.1-1.2-1.1h-16.7c-0.7,0-1.1,0.2-1.2,1.1l-1.8,13
		c-0.1,0.8-0.5,1-1.1,1h-6.1C345,82.1,344.4,81.5,344.5,80.8z M371.4,58.9c0.7,0,1-0.5,0.9-1.1l-6.1-45.1c-0.1-0.7-0.3-0.9-1-0.9h-2
		c-0.7,0-0.9,0.2-1,0.9L356,57.7c-0.1,0.7,0.3,1.1,1,1.1H371.4z"/>
	<path fill="#FFFFFF" d="M408.6,80.9V4.4c0-0.7,0.5-1.1,1.1-1.1h10.1c17.6,0,29.1,14.6,29.1,32.8c0,11.6-4.7,21.7-12.6,27.6
		c-0.5,0.3-0.5,0.8-0.2,1.2l8.3,15.7c0.5,0.8,0,1.5-0.8,1.5h-7.4c-0.6,0-1-0.3-1.2-0.9l-6.2-12.4c-0.3-0.7-0.9-0.9-1.6-0.8
		c-0.5,0.1-4.6,0.9-7.3,0.9h-1.7c-0.7,0-1.1,0.5-1.1,1.1v10.9c0,0.7-0.5,1.1-1.1,1.1h-6.2C409,82.1,408.6,81.6,408.6,80.9z
		 M419.9,61c13,0,20.4-11.3,20.4-24.9c0-13.5-7.4-24.9-20.4-24.9h-1.7c-0.7,0-1.1,0.5-1.1,1.1v47.5c0,0.7,0.5,1.1,1.1,1.1H419.9z"/>
	<path fill="#FFFFFF" d="M473.7,80.9V4.3c0-0.7,0.5-1.1,1.1-1.1h6.2c0.7,0,1.1,0.5,1.1,1.1v76.6c0,0.7-0.5,1.1-1.1,1.1h-6.2
		C474.1,82.1,473.7,81.6,473.7,80.9z"/>
	<path fill="#FFFFFF" d="M511.4,63.5V4.3c0-0.7,0.5-1.1,1.1-1.1h6.2c0.7,0,1.1,0.5,1.1,1.1v59.1c0,7.3,5.1,11.9,11.9,11.9
		s12.1-4.6,12.1-11.9V4.3c0-0.7,0.5-1.1,1.1-1.1h6.2c0.7,0,1.1,0.5,1.1,1.1v59.1c0,11.5-8.9,19.9-20.5,19.9
		C520.2,83.4,511.4,75,511.4,63.5z"/>
	<path fill="#FFFFFF" d="M581.6,80.9V4.3c0-0.7,0.5-1.1,1.1-1.1h5.1c0.7,0,1.1,0.3,1.5,0.9l14.1,24c0.1,0.2,0.3,0.5,0.7,0.5
		s0.6-0.2,0.7-0.5l14.2-24c0.3-0.6,0.8-0.9,1.5-0.9h5.1c0.7,0,1.1,0.5,1.1,1.1v76.6c0,0.7-0.5,1.1-1.1,1.1h-5.6
		c-0.7,0-1.1-0.5-1.1-1.1V21.8c0-0.5-0.3-0.8-0.8-0.8c-0.5,0-0.7,0.3-0.8,0.6l-11.9,20.5c-0.2,0.5-0.6,0.7-1,0.7
		c-0.5,0-0.8-0.2-1-0.7l-12.1-20.5c-0.1-0.2-0.3-0.6-0.8-0.6s-0.8,0.3-0.8,0.8v59.1c0,0.7-0.5,1.1-1.1,1.1h-5.6
		C582,82.1,581.6,81.6,581.6,80.9z"/>
</g>
<g>
</g>
<g>
</g>
<g>
</g>
<g>
</g>
<g>
</g>
<g>
</g>
<g>
</g>
<g>
</g>
<g>
</g>
<g>
</g>
<g>
</g>
<g>
</g>
<g>
</g>
<g>
</g>
<g>
</g>
</svg>
